<svg version="1.1" xmlns="http://www.w3.org/2000/svg" x="0px" y="0px" viewBox="0 0 1000 1000" enable-background="new 0 0 1000 1000" xml:space="preserve">
<g fill="white">
    <path d="M451.8,534c0.8,1,1.8,1.8,2.7,2.7c10.8,13.4,27.1,22.1,45.6,22.1c32.5,0,58.8-26.3,58.8-58.8c0-17.3-7.6-32.6-19.4-43.4c-1.5-1.7-2.9-3.5-5.2-5.2L296.7,270.6c-6.9-5.3-16.9-5.6-24.1,0c-8.6,6.7-10.3,19.1-3.6,27.7L451.8,534L451.8,534z"/>
    <path d="M500.1,10c-6.4,0-12.7,0.7-19.1,1v20.3h-0.6v213.8h39.2V50.2C759.1,60.6,950.8,258.1,950.8,500c0,248.6-202.2,450.8-450.8,450.8S49.2,748.6,49.2,500c0-124.3,50.6-237,132.2-318.6l-27.9-27.9C64.9,242.2,10,364.7,10,500c0,270.6,219.3,490,490,490c270.7,0,490-219.3,490-490C990,229.4,770.7,10,500.1,10L500.1,10z"/>
</g>
</svg>