<svg version="1.1" xmlns="http://www.w3.org/2000/svg" x="0px" y="0px" viewBox="0 0 1000 1000" enable-background="new 0 0 1000 1000" xml:space="preserve">
<g fill="white">
    <path d="M414.9,10c-23.2,0-41.5,17.2-41.5,37.1c0,19.9,18.3,34.9,41.5,34.9h50.2v72c-215.4,17.5-384.1,197-384.1,416.9C80.9,802.4,268.6,990,500,990s419.1-187.6,419.1-419.1c0-219.9-168.8-399.4-384.1-416.9V82h50.2c23.2,0,41.5-15.1,41.5-34.9c0-19.9-18.3-37.1-41.5-37.1H414.9z M500,221.7c192.9,0,349.2,156.4,349.2,349.2c0,192.9-156.4,349.2-349.2,349.2c-192.9,0-349.2-156.4-349.2-349.2C150.8,378.1,307.1,221.7,500,221.7z M500,291.6c-19.3,0-34.9,15.6-34.9,34.9v279.4c0,2.4-0.4,4.3,0,6.5c-1,11.1,3.8,22.9,13.1,30.6l106.9,89.5c14.9,12.3,37.9,10.5,50.2-4.4c12.3-14.9,10.5-37.9-4.4-50.2l-96-78.6V326.5C534.9,307.1,519.3,291.6,500,291.6z"/>
</g>
</svg>