<svg version="1.1" xmlns="http://www.w3.org/2000/svg" x="0px" y="0px" viewBox="0 0 1000 1000" enable-background="new 0 0 1000 1000" xml:space="preserve">
<g fill="white">
    <g transform="translate(0.000000,511.000000) scale(0.100000,-0.100000)">
        <path d="M4707.7,5006.1C3651.3,4954,2616.6,4535.4,1801,3830.4c-130.2-112.8-284.2-251.6-338.4-310.2C777.1,2793.5,343.3,1938.9,161.1,956.2C104.7,654.7,80.8-93.7,117.7-416.9c67.2-585.7,214.7-1097.6,466.4-1613.9c271.1-553.1,564-954.4,1023.9-1401.3C2558-4353.9,3818.3-4835.5,5163.2-4790c926.3,30.4,1754.9,292.8,2516.3,791.8C8829.1-3245.5,9601.4-2072,9837.8-718.4c58.6,342.7,80.3,956.6,45.5,1303.7C9707.7,2292.4,8701.2,3748,7169.7,4511.5C6414.8,4886.8,5607.9,5049.5,4707.7,5006.1z M4892.1,4305.4v-483.7l-188.7-15.2c-863.3-69.4-1652.9-431.7-2282-1041.2c-657.3-639.9-1041.2-1451.2-1121.5-2370.9l-15.2-180H801H315.1V351c0,329.7,91.1,809.1,232.1,1238.6c522.8,1574.8,1852.5,2763.5,3481.5,3112.8c275.5,58.6,793.9,115,848.1,93.3C4885.6,4791.3,4892.1,4570.1,4892.1,4305.4z M5553.7,4767.5c822.1-84.6,1685.5-446.9,2375.3-995.7c355.8-284.2,770.1-744,1023.9-1138.8c414.3-644.2,678.9-1444.7,726.7-2195.2l13-223.4h-490.2H8712l-10.8,125.8c-47.7,464.2-117.1,776.6-253.8,1121.5c-505.4,1288.5-1707.2,2199.6-3082.4,2336.2l-256,26v490.2v488.1l112.8-6.5C5284.7,4793.5,5434.4,4780.5,5553.7,4767.5z M4892.1,3110.2v-485.9l-69.4-10.8c-39-6.5-145.3-21.7-234.3-34.7c-939.3-138.8-1746.2-867.7-2008.7-1820c-28.2-99.8-56.4-240.8-62.9-314.5c-6.5-71.6-17.4-154-23.9-180l-8.7-49.9h-492.4h-490.2l15.2,167c49.9,607.4,260.3,1199.6,605.2,1709.3c260.3,383.9,776.6,850.3,1212.6,1091.1c405.6,223.4,1041.2,407.8,1444.7,414.3l112.8,2.2V3110.2z M5696.8,3531c926.2-184.4,1774.4-783.1,2282-1603c277.6-449,453.4-991.3,503.3-1544.5l15.2-169.2h-496.7h-498.9l-15.2,169.2c-43.4,540.1-357.9,1167-776.6,1555.3c-375.3,347.1-891.5,594.4-1351.4,650.8c-58.6,6.5-141,17.3-177.9,23.9l-71.6,10.8v490.2v490.2l190.9-15.2C5404,3580.9,5581.9,3554.9,5696.8,3531z M4892.1,1982.2v-423h108.5H5109v423v425.2l115-15.2c364.4-45.6,694.1-158.3,982.6-336.2c221.3-136.7,542.3-440.3,679-646.4c208.2-308,360.1-715.8,386.1-1036.9l13-158.3h-427.3h-425.1V105.9V-2.6h425.1h427.3l-13-158.3c-28.2-323.2-180-724.5-388.3-1028.2c-366.6-533.6-1015.2-924.1-1616-976.1l-158.3-13v412.1c0,225.6-4.3,416.5-8.7,420.8c-6.5,4.3-54.2,6.5-108.5,2.2l-99.8-8.7v-412.1v-414.3l-158.3,13c-414.3,34.7-874.2,238.6-1238.6,546.6c-412.1,349.2-726.7,952.3-778.7,1492.4l-13,123.6H3148h442.5v108.5v108.5h-444.7H2699l15.2,115c71.6,583.5,303.7,1054.2,709.3,1438.2c260.3,249.5,546.6,418.7,891.5,529.3c136.7,45.6,418.7,102,529.3,106.3l47.7,2.2V1982.2z M1299.9-180.4c41.2-475.1,162.7-906.7,384-1351.4c375.3-761.4,982.6-1357.9,1744-1715.8c349.2-162.7,802.6-290.7,1138.8-323.2c78.1-6.5,182.2-17.4,234.3-23.8l91.1-10.8v-488.1v-485.9h-106.3c-305.9,0-893.7,110.6-1269,236.4C2089.5-3855,1000.5-2755.3,532-1325.8C410.5-952.7,315.1-436.4,315.1-141.4V-2.6H801h483.7L1299.9-180.4z M2492.9-37.3c6.5-19.5,13-67.2,13-106.3c0-41.2,15.2-145.3,32.5-232.1c212.6-1015.2,993.5-1787.4,2008.7-1980.5c97.6-17.4,214.7-32.5,260.3-32.5h84.6v-498.9c0-329.7-8.7-498.9-21.7-498.9s-117.1,10.8-234.3,23.8c-418.7,43.4-796.1,154-1186.5,347.1C2365-2484.1,1616.6-1386.5,1516.8-180.4L1501.6-2.6h488.1C2417-2.6,2482.1-6.9,2492.9-37.3z M8482.1-169.6c-112.8-1292.8-930.6-2427.3-2115-2930.6c-347.1-147.5-702.8-236.5-1110.6-275.5l-147.5-15.2v498.9v496.7l162.7,15.2c592.2,54.2,1234.3,392.6,1624.7,854.7c329.7,388.3,551,904.6,592.2,1366.6l13,156.2h496.8h498.9L8482.1-169.6z M9686-100.2c0-323.2-106.3-893.7-240.8-1284.2C9102.5-2393,8432.2-3249.8,7532-3837.7c-633.4-412.1-1436-681.1-2206.1-733.2L5109-4586v488.1v490.2l67.2,13c36.9,6.5,104.1,13,149.7,13c149.7,0,574.8,88.9,830.8,173.5c1049.9,351.4,1869.8,1121.5,2279.8,2138.8c143.2,360.1,212.6,657.3,262.5,1143.2l13,123.6h488.1H9686V-100.2z"/>
    </g>
</g>
</svg>