<svg version="1.1" xmlns="http://www.w3.org/2000/svg" x="0px" y="0px" viewBox="0 0 1000 1000" enable-background="new 0 0 1000 1000" xml:space="preserve">
<g fill="white">
    <g transform="translate(0.000000,511.000000) scale(0.100000,-0.100000)">
        <path d="M8407.1,4952.7c-41.5-31.6-256.9-237.2-476.3-458.5c-326.1-330-409.1-424.9-454.5-521.7l-55.3-118.6l-4-553.3l-5.9-553.3L6142.3,1478.4L4875.5,211.7L4774.7,267c-146.3,81-312.3,122.5-488.1,122.5c-881.4-4-1314.2-1061.2-691.7-1685.7c452.5-450.6,1177.8-373.5,1531.6,164c195.6,296.4,205.5,701.6,27.7,1021.7L5094.9-3.8l1262.8,1262.8l1262.8,1262.8l561.3,3.9l563.2,4l116.6,55.3c96.8,45.5,195.6,130.4,547.4,482.2c237.2,235.2,444.7,456.5,462.5,492.1c43.5,92.9,37.6,173.9-19.8,241.1c-61.3,73.1-90.9,85-464.4,181.8c-409.1,106.7-405.1,102.8-513.8,513.8c-96.8,375.5-108.7,403.2-181.8,464.4C8610.6,5029.7,8505.9,5027.8,8407.1,4952.7z"/>
        <path d="M4110.7,3593c-889.3-39.5-1780.6-379.4-2464.4-938.7C383.5,1622.7-173.8-59.1,229.4-1630.2c191.7-745,555.3-1379.4,1102.7-1928.8c913-911.1,2167.9-1351.8,3434.7-1203.5c1938.7,227.3,3452.5,1733.2,3691.6,3675.8c29.6,233.2,29.6,762.8,0,988.1c-59.3,474.3-187.7,907.1-393.3,1328c-118.6,239.1-377.5,656.1-496,794.5l-41.5,49.4L7417,1962.6l-110.7-110.7l69.2-87c189.7-231.2,405.1-610.6,537.5-944.6c565.2-1426.9,223.3-3061.2-869.6-4160C5543.5-4845.6,3128.5-4869.3,1593-3391C31.8-1887.1,10,614.8,1547.5,2150.3c1175.9,1175.9,2946.6,1472.3,4448.5,747c205.5-98.8,507.9-288.5,660-413l87-69.2l110.7,110.7l110.7,110.7L6915,2678c-124.5,106.7-539.5,369.6-747,472.3C5529.7,3470.5,4808.3,3624.6,4110.7,3593z"/>
        <path d="M3863.7,2055.5c-855.7-152.2-1579-679.8-1964.4-1436.7c-110.7-219.4-207.5-509.9-253-756.9c-49.4-262.8-43.5-713.4,11.9-972.3c203.5-968.4,867.6-1723.3,1786.5-2031.6c294.5-98.8,529.6-136.4,853.7-134.4c1272.7,2,2332,859.7,2620.5,2120.5c55.3,241.1,69.2,685.8,31.6,938.7c-61.3,383.4-209.5,778.6-413,1086.9l-83,128.5l-104.7-102.8c-57.3-57.3-104.7-108.7-104.7-116.6c0-7.9,41.5-81,90.9-164c254.9-424.9,373.5-938.7,326.1-1420.9c-92.9-956.5-729.2-1756.9-1626.4-2051.3c-1537.5-502-3118.5,646.2-3118.5,2264.8c0,1075.1,723.3,2013.8,1768.7,2294.4c606.7,162,1276.7,71.1,1810.2-249c88.9-55.3,168-98.8,173.9-98.8c7.9,0,59.3,47.4,116.6,104.7l102.8,104.8l-122.5,81c-264.8,171.9-592.9,312.2-905.1,383.4C4636.4,2081.2,4089,2095,3863.7,2055.5z"/>
    </g>
</g>
</svg>