<svg version="1.1" xmlns="http://www.w3.org/2000/svg" x="0px" y="0px" viewBox="0 0 1000 1000" enable-background="new 0 0 1000 1000" xml:space="preserve">
<g fill="white">
    <g transform="translate(0.000000,511.000000) scale(0.100000,-0.100000)">
        <path d="M4495.9,4989.2C3263,4852,2075.1,4210.9,1269,3252.4C-17.5,1719.4-262-336.8,634.3-2073.6c664.7-1286.5,1829-2221.3,3205.5-2573c1209.3-308.8,2540.8-111.5,3612.9,531.7c1350.8,812.6,2244.9,2167.7,2425,3681.5c34.3,285.2,27.9,866.2-10.7,1162.1c-135.1,1027-611.1,1996.2-1359.4,2768.1c-834.1,859.8-1865.4,1368-3029.6,1494.5C5237.7,5017.1,4731.7,5014.9,4495.9,4989.2z M5696.6,4358.8C7015.2,4138,8110.9,3381.1,8752,2249c448.1-791.2,634.6-1783.9,514.6-2718.8c-208-1588.8-1256.5-2905.3-2750.9-3456.3c-437.4-160.8-857.7-238-1376.5-253c-1031.3-30-1949,253-2742.4,846.9c-201.5,150.1-566,499.6-731.1,701.1C514.2-1226.7,383.4,848.9,1346.1,2403.4c692.6,1115,1854.7,1837.5,3192.6,1985.5C4791.8,4416.7,5452.1,4399.6,5696.6,4358.8z"/>
        <path d="M4781,3597.6c-38.6-21.4-85.8-66.5-107.2-100.8c-36.5-55.7-38.6-156.5-38.6-1807.5c0-1964-10.7-1841.8,160.8-1929.7c81.5-42.9,124.4-42.9,1805.4-42.9c1953.3,0,1824.6-10.7,1921.1,173.7c77.2,147.9,34.3,298-109.3,383.8c-66.5,40.7-120.1,42.9-1616.7,42.9H5248.5L5242,1878c-6.4,1462.3-8.6,1565.2-45,1618.8c-55.8,85.8-163,143.7-261.6,143.7C4888.2,3640.5,4819.6,3621.2,4781,3597.6z"/>
    </g>
</g>
</svg>